<?xml version="1.0" encoding="UTF-8" standalone="no"?>
<!-- Generator: Adobe Illustrator 12.0.1, SVG Export Plug-In . SVG Version: 6.00 Build 51448)  -->

<svg
   xmlns:dc="http://purl.org/dc/elements/1.1/"
   xmlns:cc="http://creativecommons.org/ns#"
   xmlns:rdf="http://www.w3.org/1999/02/22-rdf-syntax-ns#"
   xmlns:svg="http://www.w3.org/2000/svg"
   xmlns="http://www.w3.org/2000/svg"
   xmlns:sodipodi="http://sodipodi.sourceforge.net/DTD/sodipodi-0.dtd"
   xmlns:inkscape="http://www.inkscape.org/namespaces/inkscape"
   version="1.1"
   id="Layer_1"
   width="512"
   height="512"
   viewBox="0 0 512.00001 512.00001"
   overflow="visible"
   enable-background="new 0 0 509.184 368.49"
   xml:space="preserve"
   inkscape:version="0.91 r13725"
   sodipodi:docname="simpletodo.svg"
   style="overflow:visible"><metadata
     id="metadata15"><rdf:RDF><cc:Work
         rdf:about=""><dc:format>image/svg+xml</dc:format><dc:type
           rdf:resource="http://purl.org/dc/dcmitype/StillImage" /><dc:title></dc:title></cc:Work></rdf:RDF></metadata><defs
     id="defs13" /><sodipodi:namedview
     pagecolor="#ffffff"
     bordercolor="#666666"
     borderopacity="1"
     objecttolerance="10"
     gridtolerance="10"
     guidetolerance="10"
     inkscape:pageopacity="0"
     inkscape:pageshadow="2"
     inkscape:window-width="1557"
     inkscape:window-height="818"
     id="namedview11"
     showgrid="false"
     fit-margin-top="0"
     fit-margin-left="0"
     fit-margin-right="0"
     fit-margin-bottom="0"
     inkscape:zoom="0.90573532"
     inkscape:cx="129.29137"
     inkscape:cy="210.93079"
     inkscape:window-x="43"
     inkscape:window-y="27"
     inkscape:window-maximized="1"
     inkscape:current-layer="layer3" /><g
     inkscape:groupmode="layer"
     id="layer2"
     inkscape:label="cercle"
     style="display:inline"
     transform="translate(0,143.5098)" /><g
     inkscape:groupmode="layer"
     id="layer1"
     inkscape:label="spider"
     style="display:inline"
     transform="translate(0,143.5098)" /><g
     inkscape:groupmode="layer"
     id="layer3"
     inkscape:label="jerusalem"
     style="display:inline"
     transform="translate(0,143.5098)"><g
       id="g5529"
       transform="matrix(1.6977616,0,0,1.6977616,-174.80632,-192.51342)"><circle
         inkscape:export-ydpi="29.200001"
         inkscape:export-xdpi="29.200001"
         inkscape:export-filename="/home/sogal/tmp/simpletodo-96px.png"
         r="147.946"
         cy="178.58934"
         cx="254.48018"
         id="path4145"
         style="display:inline;overflow:visible;opacity:1;fill:#ffff00;fill-opacity:1;stroke:none;stroke-width:1.70000005;stroke-miterlimit:4;stroke-dasharray:0, 1.70000005, 3.4000001, 5.10000014, 6.80000019, 8.50000024, 10.20000029, 11.90000033, 13.60000038, 15.30000043, 17.00000048, 18.70000052, 20.40000057, 22.10000062, 23.80000067;stroke-dashoffset:0;stroke-opacity:1" /><g
         transform="matrix(0,-0.49261308,0.49261308,0,160.8799,297.51528)"
         id="g3"
         style="display:inline;overflow:visible"><path
           style="clip-rule:evenodd;fill-rule:evenodd"
           inkscape:connector-curvature="0"
           id="path5"
           d="m 196.975,214.02 c -9.23,1.206 -12.292,10.126 -17.998,14.998 -11.417,9.747 -28.095,19.973 -49.994,16.998 -8.482,-1.152 -20.606,-6.137 -27.996,-10.999 -7.235,-4.76 -9.177,-8.041 -14.998,-14.998 -2.579,-3.081 -6.701,-5.75 -7.999,-7.999 -3.354,-5.811 -4.033,-14.46 -7,-19.997 -1.547,-1.785 -6.001,-0.664 -6.999,-3 2.198,-4.527 3.081,-2.799 0,-6.999 1.926,-1.407 4.023,-2.643 6.999,-3 5.014,-17.338 17.409,-34.332 32.996,-43.994 11.479,-7.117 33.366,-14.248 50.994,-7 15.709,6.46 29.76,20.593 42.995,29.997 -12.764,-16.901 -37.814,-30.176 -48.994,-51.994 -5.303,-2.696 -10.947,-5.05 -13.998,-9.999 C 120.303,90.716 101.418,89.604 90.988,80.036 79.928,79.079 69.063,74.733 57.992,72.037 46.724,69.292 34.896,67.738 24.996,64.038 20.893,62.504 16.259,58.943 11.997,57.038 7.716,55.126 0.717,55.527 1,49.041 c 7.371,-2.747 16.046,-0.777 22.997,1 8.413,2.15 16.168,7.328 24.997,9.999 4.508,1.364 9.355,1.645 13.998,3 4.121,1.203 8.027,3.991 11.999,5 7.454,1.893 16.166,0.333 23.997,2 5.526,1.176 11.649,5.14 17.998,7.999 2.786,1.255 5.853,2.649 8.999,4 5.831,2.502 9.95,4.507 18.998,5 5.167,2.165 6.468,8.197 8.999,12.999 1.289,1.377 4.343,0.989 6.999,1 20.113,18.216 32.377,44.28 56.993,57.993 6.841,-9.387 -3.629,-18.169 -7.999,-25.997 -4.941,-8.85 -7.179,-18.912 -12.999,-25.997 C 195.918,93.908 182.797,85.673 173.979,76.041 165.748,67.05 159.741,57.467 152.981,50.044 141.455,37.386 131.377,25.953 118.985,14.049 115.607,10.804 108.529,6.347 111.986,0.05 c 7.512,-0.751 11.324,7.685 15.998,11.999 14.525,13.405 29.009,30.259 41.995,45.994 2.872,0.795 5.308,2.024 7.999,3 8.877,13.787 17.988,27.339 28.996,38.995 -0.22,3.219 1.769,4.23 1,7.999 1.733,3.266 6.969,3.029 8.999,5.999 5.477,17.521 11.052,34.942 18.998,49.994 2.121,-2.545 1.152,-8.18 3,-10.999 11.593,-16.07 26.802,-28.525 39.995,-42.995 3.22,0.22 4.23,-1.769 7.999,-1 1.789,-1.877 3.57,-3.762 4.999,-5.999 22.77,-9.76 42.994,-25.147 66.992,-33.996 17.432,-6.428 33.383,-15.293 51.993,-22.998 5.365,-2.221 12.458,-6.75 18.998,-4 0.935,8.03 -9.1,9.967 -13.999,11.999 -17.863,7.408 -34.643,15.168 -51.993,24.997 -22.141,12.542 -45.267,22.697 -65.991,35.996 -2.396,0.604 -4.562,1.438 -7.999,1 -1.588,2.745 -4.049,4.617 -5,7.999 -6.951,5.423 -13.479,11.15 -19.997,16.998 -5.95,5.339 -14,11.037 -15.998,19.998 9.833,-5.175 21.141,-12.046 33.996,-16.998 6.304,-2.428 13.208,-4.05 19.997,-6.999 5.944,-2.582 12.266,-7.005 17.998,-7.999 4.734,-0.821 10.114,0.518 14.998,0 11.216,-1.188 21.275,-6.947 31.996,-9.999 23.18,-6.599 47.866,-8.733 71.99,-13.999 23.677,-5.167 46.205,-15.273 68.992,-14.998 1.846,9.867 -6.985,9.116 -15.998,9.999 -16.194,1.587 -38.014,9.712 -54.993,13.998 -6.421,1.621 -13.209,2.241 -18.998,4 -4.618,1.402 -8.112,5.327 -12.998,6.999 -15.61,5.343 -35.96,4.94 -52.993,9.999 -2.944,0.874 -5.044,3.112 -7.999,4 -6.917,2.077 -14.571,2.011 -20.998,3.999 -10.929,3.382 -21.388,8.831 -31.996,11.999 -9.791,2.924 -25.038,2.301 -28.996,13.999 7.83,0.174 25.785,-3.09 34.996,1 1.853,2.146 0.674,7.324 1,10.999 -4.19,0.856 -2.19,-4.476 -4,-6 -5.333,0 -10.665,0 -15.998,0 -2.276,2.02 4.619,3.323 4,6.999 -3.727,-0.743 -9.028,-2.308 -9.999,2 -0.651,4.812 7.422,5.151 8.999,2 3.176,4.222 -4.617,6.015 -6,8.999 10.037,1.037 16.668,-1.331 22.998,-4 1.453,16.78 -26.425,10.354 -36.996,8.999 3.261,12.251 21.347,9.563 33.996,12.998 7.268,1.974 18.645,8.209 25.997,10.999 7.698,2.921 16.71,2.87 25.996,4.999 13.944,3.197 28.794,8.044 43.995,10.999 7.898,1.535 15.931,2.689 22.997,4.999 7.232,2.364 13.357,5.743 19.997,6.999 4.705,0.891 9.331,0.261 13.998,1 16.114,2.552 30.645,9.07 44.994,11.999 6.038,1.231 14.938,-2.835 14.999,8.998 -7.406,3.341 -15.825,-0.271 -22.997,-1.999 -22.604,-5.447 -45.826,-8.541 -68.992,-11.999 -22.043,-3.29 -44.978,-10.509 -64.991,-16.998 -4.545,-1.473 -7.962,-4.583 -13.999,-4.999 -2.725,-0.188 -6.431,1.438 -8.998,1 -3.688,-0.629 -6.665,-4.006 -9.999,-4.999 -6.591,-1.965 -14.106,-1.973 -20.997,-4 -17.922,-5.271 -36.022,-12.437 -50.994,-21.997 9.876,15.121 24.02,25.975 36.995,37.995 0.576,2.091 2.479,2.854 2,5.999 3.998,-0.331 5.55,1.782 9.999,1 13.959,13.038 33.373,20.62 52.993,27.997 11.591,8.784 24.76,16.903 38.995,23.996 6.606,3.292 13.811,6.823 20.997,9.999 6.378,2.818 16.792,3.623 18.998,11.999 -5.553,5.437 -12.042,0.231 -16.998,-2 -5.623,-2.532 -11.688,-4.502 -16.998,-6.999 -14.809,-6.964 -25.512,-16.755 -44.994,-18.998 -8.443,-5.744 -17.13,-11.584 -26.996,-16.998 -13.07,-7.171 -28.783,-10.511 -36.996,-21.997 -3.708,0.709 -4.291,-1.708 -7.999,-1 -14.563,-16.432 -32.259,-29.733 -42.994,-49.993 -9.052,13.279 -13.005,31.656 -18.998,47.994 -2.797,1.868 -4.878,4.453 -8.999,4.999 0.196,3.863 0.036,7.368 -1,9.999 -11.63,10.7 -21.141,23.52 -29.996,36.995 -3.056,-0.723 -3.644,1.022 -6,1 -18.199,17.463 -31.979,39.345 -52.993,53.993 -1.69,2.891 -5.384,6.604 -7.999,3 -2.667,-5.96 4.27,-10.182 8.999,-11.999 25.009,-27.65 49.9,-55.419 75.99,-81.989 3.669,-7.942 5.308,-15.812 8.999,-23.997 5.3,-11.753 19,-21.506 14.998,-34.996 -22.711,14.618 -36.786,37.871 -54.993,56.993 -2.833,0.167 -4.167,1.832 -6.999,2 -3.87,2.796 -5.194,8.137 -8.999,10.998 -14.155,1.784 -22.79,4.259 -34.996,9.999 -3.941,1.854 -6.921,5.238 -9.999,5.999 -7.093,1.755 -15.045,-0.308 -21.998,1 -7.643,1.438 -15.245,5.951 -22.997,7.999 -3.228,0.853 -7.03,0.12 -9.999,1 -5.218,1.546 -9.96,4.173 -14.998,5.999 -5.383,1.951 -10.256,2.771 -15.998,4 -3.779,0.809 -10.853,5.571 -14.998,0 0.968,-6.719 9.033,-6.996 13.998,-8.999 4.838,-1.952 10.108,-5.48 14.998,-6.999 19.15,-5.947 42.905,-6.236 61.992,-13.999 6.427,-2.613 10.482,-5.946 18.998,-7.999 7.284,-1.755 15.112,-2.181 21.998,-4.999 6.041,-2.473 9.442,-8.468 15.998,-8.999 10.899,-23.434 35.334,-33.327 48.994,-53.997 z" /><path
           style="clip-rule:evenodd;fill-rule:evenodd"
           inkscape:connector-curvature="0"
           id="path7"
           d="m 131.983,183.024 c -8.182,-1.77 -11.652,-12.618 -19.998,-10.999 -2.207,6.995 -1.354,19.998 0,28.997 11.081,-0.477 11.027,-11.73 19.998,-11.999 8.958,-0.268 9.628,10.647 20.997,10.999 0.747,-7.473 3.599,-24.643 -2,-28.997 -7.448,-1.104 -10.023,11.298 -18.997,11.999 z" /><path
           style="clip-rule:evenodd;fill:#ee3224;fill-rule:evenodd"
           inkscape:connector-curvature="0"
           id="path9"
           d="m 150.981,171.025 c 5.598,4.354 2.746,21.524 2,28.997 -11.369,-0.352 -12.039,-11.267 -20.997,-10.999 -8.971,0.269 -8.917,11.522 -19.998,11.999 -1.354,-8.999 -2.207,-22.002 0,-28.997 8.345,-1.619 11.816,9.229 19.998,10.999 8.973,-0.701 11.548,-13.103 18.997,-11.999 z" /></g><rect
         y="209.50334"
         x="236.82416"
         height="41.048306"
         width="30.914114"
         id="rect4771"
         style="overflow:visible;opacity:1;fill:#000000;fill-opacity:1;stroke:none;stroke-width:1.70000005;stroke-miterlimit:4;stroke-dasharray:0, 1.70000005, 3.4000001, 5.10000014, 6.80000019, 8.50000024, 10.20000029, 11.90000033, 13.60000038, 15.30000043, 17.00000048, 18.70000052, 20.40000057, 22.10000062, 23.80000067;stroke-dashoffset:0;stroke-opacity:1" /><g
         transform="matrix(0.31192661,0,0,0.31192661,42.071359,173.21375)"
         id="g4779"
         style="overflow:visible"><rect
           style="opacity:1;fill:#00ae00;fill-opacity:1;stroke:#e1e1e1;stroke-width:1.70000005;stroke-miterlimit:4;stroke-dasharray:none;stroke-dashoffset:0;stroke-opacity:1"
           id="rect4773"
           width="79.493423"
           height="33.122257"
           x="588.47211"
           y="164.23627" /><ellipse
           style="opacity:1;fill:#ff0e00;fill-opacity:1;stroke:#e1e1e1;stroke-width:1.70000005;stroke-miterlimit:4;stroke-dasharray:none;stroke-dashoffset:0;stroke-opacity:1"
           id="path4775"
           cx="733.10596"
           cy="180.79739"
           rx="25.393732"
           ry="20.97743" /><path
           style="fill:none;fill-opacity:1;fill-rule:evenodd;stroke:#e1e1e1;stroke-width:1.70000005;stroke-linecap:butt;stroke-linejoin:miter;stroke-miterlimit:4;stroke-dasharray:none;stroke-opacity:1"
           d="m 667.41352,180.24536 c 0,0 19.87336,-12.14482 40.29875,-1.65611"
           id="path4777"
           inkscape:connector-curvature="0" /></g><path
         inkscape:export-ydpi="47"
         inkscape:export-xdpi="47"
         id="path3351-4"
         d="m 372.98841,235.16934 c -0.11166,0.0237 -0.22603,0.11421 -0.34667,0.27669 -0.48268,0.64963 -12.02955,17.77031 -13.0458,19.30725 -1.01623,1.53696 -2.13624,2.47715 -2.61413,2.78852 -0.12314,0.12135 0.55622,1.44477 1.10002,2.4096 0.29879,0.54962 0.49529,1.61056 1.10513,1.46199 0.0919,-0.0535 0.51003,-0.43932 0.13813,-1.65573 -0.37183,-1.21644 -0.27854,-1.20459 0.52078,-3.50434 0.79941,-2.29979 4.04942,-6.31832 4.48071,-6.79622 0.4313,-0.47787 1.0093,1.79223 1.60437,2.88828 0.5951,1.09604 1.99174,4.40634 2.36317,5.55685 0.37136,1.15051 1.03392,4.05135 0.86366,5.03469 -0.17033,0.98335 -1.64561,2.9204 -2.05718,3.39153 -0.41156,0.47114 -0.89931,2.13444 -0.045,0.96122 0.8543,-1.17319 4.59421,-6.79092 6.57579,-9.62715 1.9816,-2.83623 1.15655,-2.15782 1.03822,-2.11735 -0.11828,0.0404 -1.55448,1.89718 -2.19287,2.8644 -0.6384,0.9672 -0.71709,0.99394 -1.06678,0.10028 -0.34957,-0.89367 -1.24186,-5.43329 -2.13106,-7.9045 -0.88926,-2.4712 -1.86206,-3.90065 -2.19516,-4.35943 -0.33309,-0.45877 0.005,-1.01512 0.005,-1.01512 0,0 3.79368,-5.52622 4.70918,-6.45603 0.91548,-0.92982 1.58323,0.25196 2.04814,0.70971 0.46491,0.45778 0.92307,-0.008 1.07881,-0.32571 0.15571,-0.31756 -0.44405,-1.03796 -0.9296,-2.45781 -0.36416,-1.06487 -0.67186,-1.60273 -1.00674,-1.53157 z m -18.11747,24.44265 -9.91452,9.99416 c -0.13604,0.1354 0.20163,0.63571 0.66695,0.25634 0.46501,-0.37929 1.96604,-2.23608 2.81656,-2.19654 0.85053,0.0395 1.22105,1.8945 1.66255,2.7347 0.45411,0.86416 1.65686,3.88235 2.57402,6.56428 0.91715,2.68192 0.697,3.96929 0.60144,4.39845 -0.0817,0.36673 -1.62105,1.76601 -2.49761,2.61642 -0.87656,0.85043 -0.16345,0.93581 0.33945,0.34533 0.50292,-0.59048 7.4416,-7.47813 8.63266,-8.56825 1.19107,-1.09014 0.24429,-0.89813 0.13896,-0.88412 -0.1055,0.0136 -1.87854,1.78786 -2.77585,2.51321 -0.89729,0.72536 -0.71977,-1.4741 -1.07179,-3.5965 -0.3516,-2.12246 -0.887,-3.68396 -2.45998,-7.00862 -1.57303,-3.32459 -0.75205,-3.29468 -0.64341,-3.70563 0.10865,-0.41096 2.25119,-2.88721 2.25119,-2.88721 l -0.32059,-0.57603 z"
         style="color:#000000;overflow:visible;solid-opacity:1;fill:#232323;fill-opacity:1;fill-rule:evenodd;stroke:#212121;stroke-width:0.14917502;stroke-opacity:1"
         inkscape:connector-curvature="0" /></g></g></svg>